<?xml version="1.0" encoding="UTF-8"?>
<!DOCTYPE svg PUBLIC "-//W3C//DTD SVG 1.1//EN" "http://www.w3.org/Graphics/SVG/1.1/DTD/svg11.dtd">
<!-- Creator: CorelDRAW 2021.5 -->
<svg xmlns="http://www.w3.org/2000/svg" xml:space="preserve" width="18.649mm" height="10.327mm" version="1.1" style="shape-rendering:geometricPrecision; text-rendering:geometricPrecision; image-rendering:optimizeQuality; fill-rule:evenodd; clip-rule:evenodd"
viewBox="0 0 1864.9 1032.7"
 xmlns:xlink="http://www.w3.org/1999/xlink"
 xmlns:xodm="http://www.corel.com/coreldraw/odm/2003">
 <defs>
  <style type="text/css">
   <![CDATA[
    .fil0 {fill:#FEFEFE}
    .fil1 {fill:#FEFEFE;fill-rule:nonzero}
   ]]>
  </style>
 </defs>
 <g id="Слой_x0020_1">
  <metadata id="CorelCorpID_0Corel-Layer"/>
  <g id="_1724074817984">
   <path class="fil0" d="M-9045.79 677.8l93.69 -133.81 163.14 0 -41.62 59.44 355.21 0c-5.2,-29.48 -7.92,-59.82 -7.92,-90.79 0,-143.42 58.14,-273.27 152.13,-367.26 93.99,-93.98 223.84,-152.12 367.25,-152.12 143.42,0 273.27,58.14 367.26,152.12 9.23,9.23 18.11,18.81 26.63,28.71l289.81 0 -71.7 102.4 -481.34 0 -281 401.31 -931.54 0zm607.3 -74.37l147.71 0 300.62 -429.34 370.9 0c-1,-1.03 -2.02,-2.05 -3.04,-3.06 -87.42,-87.43 -208.2,-141.5 -341.61,-141.5 -133.41,0 -254.19,54.07 -341.61,141.5 -87.42,87.42 -141.5,208.2 -141.5,341.61 0,31.03 2.93,61.38 8.53,90.79z"/>
   <polygon class="fil0" points="-9087.35,737.15 -9123.83,789.25 -7295.39,789.25 -7258.91,737.15 "/>
   <path class="fil0" d="M-7935.92 603.43l355.08 0 41.63 -59.44 -359.71 0 52.03 -74.31 359.71 0 41.62 -59.44 -359.71 0 52.03 -74.31 494.33 0 -239.38 341.87c-165.57,0 -328.52,0 -494.33,0l56.7 -74.37z"/>
   <path class="fil1" d="M-7261.67 969.2c0,9.58 -1.85,17.91 -5.55,24.97 -3.7,7.07 -8.62,12.95 -14.84,17.66 -6.23,4.71 -13.41,8.24 -21.66,10.6 -8.24,2.35 -16.86,3.53 -25.94,3.53 -9.08,0 -17.66,-1.18 -25.82,-3.53 -8.11,-2.36 -15.34,-5.89 -21.65,-10.6 -6.31,-4.71 -11.27,-10.59 -14.97,-17.66 -3.7,-7.06 -5.55,-15.39 -5.55,-24.97l0 -65.35c0,-9.58 2.02,-17.82 6.06,-24.72 4.03,-6.89 9.25,-12.61 15.72,-17.15 6.48,-4.54 13.71,-7.91 21.78,-10.09 8.08,-2.19 16.19,-3.28 24.43,-3.28 8.24,0 16.4,1.17 24.56,3.53 8.15,2.35 15.43,5.84 21.9,10.47 6.48,4.62 11.65,10.47 15.6,17.53 3.96,7.07 5.93,15.39 5.93,24.98l0 64.08zm-40.11 -56.51c0,-5.05 -0.84,-9.3 -2.52,-12.74 -1.69,-3.45 -3.83,-6.23 -6.44,-8.33 -2.6,-2.1 -5.59,-3.66 -8.95,-4.67 -3.37,-1.01 -6.65,-1.51 -9.84,-1.51 -3.37,0 -6.69,0.5 -9.97,1.51 -3.28,1.01 -6.26,2.57 -8.95,4.67 -2.7,2.1 -4.88,4.88 -6.56,8.33 -1.69,3.44 -2.53,7.69 -2.53,12.74l0 49.19c0,5.05 0.84,9.29 2.53,12.74 1.68,3.45 3.86,6.22 6.56,8.33 2.69,2.1 5.67,3.66 8.95,4.66 3.28,1.01 6.6,1.52 9.97,1.52 3.19,0 6.47,-0.51 9.84,-1.52 3.36,-1 6.35,-2.56 8.95,-4.66 2.61,-2.11 4.75,-4.88 6.44,-8.33 1.68,-3.45 2.52,-7.69 2.52,-12.74l0 -49.19z"/>
   <polygon class="fil1" points="-9123.83,1025.96 -9123.83,848.61 -9000.02,848.61 -9000.02,884.9 -9082.9,884.9 -9082.9,1025.96 "/>
   <path class="fil1" d="M-8842.02 969.2c0,9.58 -1.85,17.91 -5.55,24.97 -3.7,7.07 -8.62,12.95 -14.84,17.66 -6.23,4.71 -13.41,8.24 -21.66,10.6 -8.24,2.35 -16.86,3.53 -25.94,3.53 -9.08,0 -17.66,-1.18 -25.82,-3.53 -8.11,-2.36 -15.34,-5.89 -21.65,-10.6 -6.31,-4.71 -11.27,-10.59 -14.97,-17.66 -3.7,-7.06 -5.55,-15.39 -5.55,-24.97l0 -65.35c0,-9.58 2.02,-17.82 6.06,-24.72 4.03,-6.89 9.25,-12.61 15.72,-17.15 6.48,-4.54 13.71,-7.91 21.78,-10.09 8.08,-2.19 16.19,-3.28 24.43,-3.28 8.24,0 16.4,1.17 24.56,3.53 8.15,2.35 15.43,5.84 21.9,10.47 6.48,4.62 11.65,10.47 15.6,17.53 3.96,7.07 5.93,15.39 5.93,24.98l0 64.08zm-40.11 -56.51c0,-5.05 -0.84,-9.3 -2.52,-12.74 -1.69,-3.45 -3.83,-6.23 -6.44,-8.33 -2.61,-2.1 -5.59,-3.66 -8.95,-4.67 -3.37,-1.01 -6.65,-1.51 -9.84,-1.51 -3.37,0 -6.69,0.5 -9.97,1.51 -3.28,1.01 -6.26,2.57 -8.95,4.67 -2.7,2.1 -4.88,4.88 -6.56,8.33 -1.69,3.44 -2.53,7.69 -2.53,12.74l0 49.19c0,5.05 0.84,9.29 2.53,12.74 1.68,3.45 3.86,6.22 6.56,8.33 2.69,2.1 5.67,3.66 8.95,4.66 3.28,1.01 6.6,1.52 9.97,1.52 3.19,0 6.47,-0.51 9.84,-1.52 3.36,-1 6.34,-2.56 8.95,-4.66 2.61,-2.11 4.75,-4.88 6.44,-8.33 1.68,-3.45 2.52,-7.69 2.52,-12.74l0 -49.19z"/>
   <polygon class="fil1" points="-8685.12,943.33 -8701.85,975.25 -8717.29,1002.28 -8746.38,1002.28 -8762.08,974.22 -8778.04,943.59 -8779.07,943.59 -8779.07,1025.96 -8820,1025.96 -8820,848.61 -8782.42,848.61 -8753.07,906.27 -8732.22,948.48 -8730.68,948.48 -8709.06,904.72 -8681,848.61 -8643.42,848.61 -8643.42,1025.96 -8684.35,1025.96 -8684.35,943.33 "/>
   <polygon class="fil1" points="-8622.78,848.61 -8498.97,848.61 -8498.97,884.9 -8581.85,884.9 -8581.85,918.36 -8498.97,918.36 -8498.97,954.66 -8581.85,954.66 -8581.85,989.67 -8498.97,989.67 -8498.97,1025.96 -8622.78,1025.96 "/>
   <path class="fil1" d="M-8404.97 884.9l0 39.39c0,13.89 -0.73,26.85 -2.19,38.86 -1.45,12.01 -4.5,22.57 -9.13,31.67 -4.63,9.09 -11.37,16.39 -20.21,21.88 -8.84,5.49 -20.72,8.57 -35.65,9.26l-6.18 -32.95c8.06,-2.06 14.33,-4.93 18.79,-8.62 4.46,-3.69 7.77,-8.24 9.91,-13.64 2.14,-5.41 3.43,-11.76 3.86,-19.05 0.43,-7.29 0.65,-15.66 0.65,-25.1l0 -77.99 120.72 0 0 177.35 -41.44 0 0 -141.06 -39.13 0z"/>
   <path class="fil1" d="M-8262.83 989.67l32.17 0c7.38,0 13.13,-1.93 17.25,-5.84 4.12,-3.86 6.18,-8.58 6.18,-14.11 0,-5.54 -2.02,-10.26 -6.05,-14.12 -4.04,-3.9 -9.83,-5.83 -17.38,-5.83l-32.17 0 0 39.9zm-40.93 36.29l0 -177.35 40.93 0 0 64.86 36.8 0c18.37,0 32.69,4.94 42.99,14.85 10.3,9.86 15.45,23.59 15.45,41.14 0,6.52 -1.03,13.17 -3.09,19.86 -2.06,6.7 -5.32,12.79 -9.78,18.19 -4.47,5.41 -10.3,9.87 -17.51,13.3 -7.21,3.43 -16.04,5.15 -26.51,5.15l-79.28 0z"/>
   <path class="fil1" d="M-8140.07 864.27c7.08,-5.05 15.41,-8.93 25.01,-11.62 9.6,-2.7 20.05,-4.04 31.33,-4.04 8.76,0 16.88,1.09 24.38,3.28 7.5,2.19 14.02,5.56 19.58,10.11 5.56,4.54 9.9,10.31 13.01,17.3 3.12,6.99 4.68,15.29 4.68,24.89l0 65.69c0,9.59 -1.9,17.89 -5.69,24.88 -3.79,6.99 -8.84,12.8 -15.16,17.43 -6.31,4.63 -13.51,8.09 -21.6,10.36 -8.08,2.27 -16.42,3.41 -25.01,3.41 -10.27,0 -20.51,-1.43 -30.7,-4.29 -10.19,-2.87 -18.73,-7.33 -25.64,-13.39l19.46 -31.08c5.72,4.88 11.7,8.13 17.93,9.73 6.23,1.6 12.13,2.4 17.69,2.4 4.04,0 7.79,-0.51 11.24,-1.52 3.45,-1.01 6.44,-2.57 8.97,-4.67 2.52,-2.11 4.55,-4.89 6.06,-8.34 1.51,-3.45 2.28,-7.7 2.28,-12.76l0 -7.9 -53.82 0 0 -36.8 53.82 0 0 -4.56c0,-5.05 -0.77,-9.31 -2.28,-12.76 -1.51,-3.45 -3.54,-6.23 -6.06,-8.34 -2.53,-2.1 -5.52,-3.66 -8.97,-4.67 -3.45,-1.01 -7.03,-1.52 -10.74,-1.52 -5.05,0 -10.15,0.68 -15.28,2.02 -5.14,1.35 -10.66,4.13 -16.55,8.34l-17.94 -31.58z"/>
   <polygon class="fil1" points="-7902.63,1025.96 -7902.63,954.14 -7959.26,954.14 -7959.26,1025.96 -8000.19,1025.96 -8000.19,848.61 -7959.26,848.61 -7959.26,917.34 -7902.63,917.34 -7902.63,848.61 -7861.19,848.61 -7861.19,1025.96 "/>
   <polygon class="fil1" points="-7840.55,848.61 -7716.74,848.61 -7716.74,884.9 -7799.62,884.9 -7799.62,917.34 -7728.84,917.34 -7728.84,954.14 -7799.62,954.14 -7799.62,989.67 -7716.74,989.67 -7716.74,1025.96 -7840.55,1025.96 "/>
   <path class="fil1" d="M-7655.17 925.06l30.11 0c7.73,0 13.22,-1.98 16.48,-5.88 3.26,-3.91 4.89,-8.63 4.89,-14.2 0,-5.58 -1.59,-10.3 -4.76,-14.2 -3.18,-3.9 -8.71,-5.88 -16.61,-5.88l-30.11 0 0 40.16zm36.68 -76.45c9.99,0 18.49,1.58 25.56,4.76 7.04,3.17 12.79,7.42 17.25,12.74 4.51,5.32 7.77,11.32 9.83,18.02 2.06,6.69 3.09,13.64 3.09,20.85 0,7.21 -1.25,14.16 -3.74,20.85 -2.49,6.69 -6.22,12.7 -11.11,18.02 -4.89,5.32 -10.89,9.56 -17.93,12.74 -7.08,3.17 -15.15,4.76 -24.28,4.76l-35.35 0 0 64.61 -40.93 0 0 -177.35 77.61 0z"/>
   <polygon class="fil1" points="-7542.13,1025.96 -7542.13,848.61 -7418.31,848.61 -7418.31,884.9 -7501.2,884.9 -7501.2,1025.96 "/>
  </g>
  <g id="_1724074817984_0">
   <path class="fil0" d="M-9045.79 677.8l93.69 -133.81 163.14 0 -41.62 59.44 355.21 0c-5.2,-29.48 -7.92,-59.82 -7.92,-90.79 0,-143.42 58.14,-273.27 152.13,-367.26 93.99,-93.98 223.84,-152.12 367.25,-152.12 143.42,0 273.27,58.14 367.26,152.12 9.23,9.23 18.11,18.81 26.63,28.71l289.81 0 -71.7 102.4 -481.34 0 -281 401.31 -931.54 0zm607.3 -74.37l147.71 0 300.62 -429.34 370.9 0c-1,-1.03 -2.02,-2.05 -3.04,-3.06 -87.42,-87.43 -208.2,-141.5 -341.61,-141.5 -133.41,0 -254.19,54.07 -341.61,141.5 -87.42,87.42 -141.5,208.2 -141.5,341.61 0,31.03 2.93,61.38 8.53,90.79z"/>
   <polygon class="fil0" points="-9087.35,737.15 -9123.83,789.25 -7295.39,789.25 -7258.91,737.15 "/>
   <path class="fil0" d="M-7935.92 603.43l355.08 0 41.63 -59.44 -359.71 0 52.03 -74.31 359.71 0 41.62 -59.44 -359.71 0 52.03 -74.31 494.33 0 -239.38 341.87c-165.57,0 -328.52,0 -494.33,0l56.7 -74.37z"/>
   <path class="fil1" d="M-7261.67 969.2c0,9.58 -1.85,17.91 -5.55,24.97 -3.7,7.07 -8.62,12.95 -14.84,17.66 -6.23,4.71 -13.41,8.24 -21.66,10.6 -8.24,2.35 -16.86,3.53 -25.94,3.53 -9.08,0 -17.66,-1.18 -25.82,-3.53 -8.11,-2.36 -15.34,-5.89 -21.65,-10.6 -6.31,-4.71 -11.27,-10.59 -14.97,-17.66 -3.7,-7.06 -5.55,-15.39 -5.55,-24.97l0 -65.35c0,-9.58 2.02,-17.82 6.06,-24.72 4.03,-6.89 9.25,-12.61 15.72,-17.15 6.48,-4.54 13.71,-7.91 21.78,-10.09 8.08,-2.19 16.19,-3.28 24.43,-3.28 8.24,0 16.4,1.17 24.56,3.53 8.15,2.35 15.43,5.84 21.9,10.47 6.48,4.62 11.65,10.47 15.6,17.53 3.96,7.07 5.93,15.39 5.93,24.98l0 64.08zm-40.11 -56.51c0,-5.05 -0.84,-9.3 -2.52,-12.74 -1.69,-3.45 -3.83,-6.23 -6.44,-8.33 -2.6,-2.1 -5.59,-3.66 -8.95,-4.67 -3.37,-1.01 -6.65,-1.51 -9.84,-1.51 -3.37,0 -6.69,0.5 -9.97,1.51 -3.28,1.01 -6.26,2.57 -8.95,4.67 -2.7,2.1 -4.88,4.88 -6.56,8.33 -1.69,3.44 -2.53,7.69 -2.53,12.74l0 49.19c0,5.05 0.84,9.29 2.53,12.74 1.68,3.45 3.86,6.22 6.56,8.33 2.69,2.1 5.67,3.66 8.95,4.66 3.28,1.01 6.6,1.52 9.97,1.52 3.19,0 6.47,-0.51 9.84,-1.52 3.36,-1 6.35,-2.56 8.95,-4.66 2.61,-2.11 4.75,-4.88 6.44,-8.33 1.68,-3.45 2.52,-7.69 2.52,-12.74l0 -49.19z"/>
   <polygon class="fil1" points="-9123.83,1025.96 -9123.83,848.61 -9000.02,848.61 -9000.02,884.9 -9082.9,884.9 -9082.9,1025.96 "/>
   <path class="fil1" d="M-8842.02 969.2c0,9.58 -1.85,17.91 -5.55,24.97 -3.7,7.07 -8.62,12.95 -14.84,17.66 -6.23,4.71 -13.41,8.24 -21.66,10.6 -8.24,2.35 -16.86,3.53 -25.94,3.53 -9.08,0 -17.66,-1.18 -25.82,-3.53 -8.11,-2.36 -15.34,-5.89 -21.65,-10.6 -6.31,-4.71 -11.27,-10.59 -14.97,-17.66 -3.7,-7.06 -5.55,-15.39 -5.55,-24.97l0 -65.35c0,-9.58 2.02,-17.82 6.06,-24.72 4.03,-6.89 9.25,-12.61 15.72,-17.15 6.48,-4.54 13.71,-7.91 21.78,-10.09 8.08,-2.19 16.19,-3.28 24.43,-3.28 8.24,0 16.4,1.17 24.56,3.53 8.15,2.35 15.43,5.84 21.9,10.47 6.48,4.62 11.65,10.47 15.6,17.53 3.96,7.07 5.93,15.39 5.93,24.98l0 64.08zm-40.11 -56.51c0,-5.05 -0.84,-9.3 -2.52,-12.74 -1.69,-3.45 -3.83,-6.23 -6.44,-8.33 -2.61,-2.1 -5.59,-3.66 -8.95,-4.67 -3.37,-1.01 -6.65,-1.51 -9.84,-1.51 -3.37,0 -6.69,0.5 -9.97,1.51 -3.28,1.01 -6.26,2.57 -8.95,4.67 -2.7,2.1 -4.88,4.88 -6.56,8.33 -1.69,3.44 -2.53,7.69 -2.53,12.74l0 49.19c0,5.05 0.84,9.29 2.53,12.74 1.68,3.45 3.86,6.22 6.56,8.33 2.69,2.1 5.67,3.66 8.95,4.66 3.28,1.01 6.6,1.52 9.97,1.52 3.19,0 6.47,-0.51 9.84,-1.52 3.36,-1 6.34,-2.56 8.95,-4.66 2.61,-2.11 4.75,-4.88 6.44,-8.33 1.68,-3.45 2.52,-7.69 2.52,-12.74l0 -49.19z"/>
   <polygon class="fil1" points="-8685.12,943.33 -8701.85,975.25 -8717.29,1002.28 -8746.38,1002.28 -8762.08,974.22 -8778.04,943.59 -8779.07,943.59 -8779.07,1025.96 -8820,1025.96 -8820,848.61 -8782.42,848.61 -8753.07,906.27 -8732.22,948.48 -8730.68,948.48 -8709.06,904.72 -8681,848.61 -8643.42,848.61 -8643.42,1025.96 -8684.35,1025.96 -8684.35,943.33 "/>
   <polygon class="fil1" points="-8622.78,848.61 -8498.97,848.61 -8498.97,884.9 -8581.85,884.9 -8581.85,918.36 -8498.97,918.36 -8498.97,954.66 -8581.85,954.66 -8581.85,989.67 -8498.97,989.67 -8498.97,1025.96 -8622.78,1025.96 "/>
   <path class="fil1" d="M-8404.97 884.9l0 39.39c0,13.89 -0.73,26.85 -2.19,38.86 -1.45,12.01 -4.5,22.57 -9.13,31.67 -4.63,9.09 -11.37,16.39 -20.21,21.88 -8.84,5.49 -20.72,8.57 -35.65,9.26l-6.18 -32.95c8.06,-2.06 14.33,-4.93 18.79,-8.62 4.46,-3.69 7.77,-8.24 9.91,-13.64 2.14,-5.41 3.43,-11.76 3.86,-19.05 0.43,-7.29 0.65,-15.66 0.65,-25.1l0 -77.99 120.72 0 0 177.35 -41.44 0 0 -141.06 -39.13 0z"/>
   <path class="fil1" d="M-8262.83 989.67l32.17 0c7.38,0 13.13,-1.93 17.25,-5.84 4.12,-3.86 6.18,-8.58 6.18,-14.11 0,-5.54 -2.02,-10.26 -6.05,-14.12 -4.04,-3.9 -9.83,-5.83 -17.38,-5.83l-32.17 0 0 39.9zm-40.93 36.29l0 -177.35 40.93 0 0 64.86 36.8 0c18.37,0 32.69,4.94 42.99,14.85 10.3,9.86 15.45,23.59 15.45,41.14 0,6.52 -1.03,13.17 -3.09,19.86 -2.06,6.7 -5.32,12.79 -9.78,18.19 -4.47,5.41 -10.3,9.87 -17.51,13.3 -7.21,3.43 -16.04,5.15 -26.51,5.15l-79.28 0z"/>
   <path class="fil1" d="M-8140.07 864.27c7.08,-5.05 15.41,-8.93 25.01,-11.62 9.6,-2.7 20.05,-4.04 31.33,-4.04 8.76,0 16.88,1.09 24.38,3.28 7.5,2.19 14.02,5.56 19.58,10.11 5.56,4.54 9.9,10.31 13.01,17.3 3.12,6.99 4.68,15.29 4.68,24.89l0 65.69c0,9.59 -1.9,17.89 -5.69,24.88 -3.79,6.99 -8.84,12.8 -15.16,17.43 -6.31,4.63 -13.51,8.09 -21.6,10.36 -8.08,2.27 -16.42,3.41 -25.01,3.41 -10.27,0 -20.51,-1.43 -30.7,-4.29 -10.19,-2.87 -18.73,-7.33 -25.64,-13.39l19.46 -31.08c5.72,4.88 11.7,8.13 17.93,9.73 6.23,1.6 12.13,2.4 17.69,2.4 4.04,0 7.79,-0.51 11.24,-1.52 3.45,-1.01 6.44,-2.57 8.97,-4.67 2.52,-2.11 4.55,-4.89 6.06,-8.34 1.51,-3.45 2.28,-7.7 2.28,-12.76l0 -7.9 -53.82 0 0 -36.8 53.82 0 0 -4.56c0,-5.05 -0.77,-9.31 -2.28,-12.76 -1.51,-3.45 -3.54,-6.23 -6.06,-8.34 -2.53,-2.1 -5.52,-3.66 -8.97,-4.67 -3.45,-1.01 -7.03,-1.52 -10.74,-1.52 -5.05,0 -10.15,0.68 -15.28,2.02 -5.14,1.35 -10.66,4.13 -16.55,8.34l-17.94 -31.58z"/>
   <polygon class="fil1" points="-7902.63,1025.96 -7902.63,954.14 -7959.26,954.14 -7959.26,1025.96 -8000.19,1025.96 -8000.19,848.61 -7959.26,848.61 -7959.26,917.34 -7902.63,917.34 -7902.63,848.61 -7861.19,848.61 -7861.19,1025.96 "/>
   <polygon class="fil1" points="-7840.55,848.61 -7716.74,848.61 -7716.74,884.9 -7799.62,884.9 -7799.62,917.34 -7728.84,917.34 -7728.84,954.14 -7799.62,954.14 -7799.62,989.67 -7716.74,989.67 -7716.74,1025.96 -7840.55,1025.96 "/>
   <path class="fil1" d="M-7655.17 925.06l30.11 0c7.73,0 13.22,-1.98 16.48,-5.88 3.26,-3.91 4.89,-8.63 4.89,-14.2 0,-5.58 -1.59,-10.3 -4.76,-14.2 -3.18,-3.9 -8.71,-5.88 -16.61,-5.88l-30.11 0 0 40.16zm36.68 -76.45c9.99,0 18.49,1.58 25.56,4.76 7.04,3.17 12.79,7.42 17.25,12.74 4.51,5.32 7.77,11.32 9.83,18.02 2.06,6.69 3.09,13.64 3.09,20.85 0,7.21 -1.25,14.16 -3.74,20.85 -2.49,6.69 -6.22,12.7 -11.11,18.02 -4.89,5.32 -10.89,9.56 -17.93,12.74 -7.08,3.17 -15.15,4.76 -24.28,4.76l-35.35 0 0 64.61 -40.93 0 0 -177.35 77.61 0z"/>
   <polygon class="fil1" points="-7542.13,1025.96 -7542.13,848.61 -7418.31,848.61 -7418.31,884.9 -7501.2,884.9 -7501.2,1025.96 "/>
  </g>
  <g id="_1724074817984_1">
   <path class="fil0" d="M-9045.79 677.8l93.69 -133.81 163.14 0 -41.62 59.44 355.21 0c-5.2,-29.48 -7.92,-59.82 -7.92,-90.79 0,-143.42 58.14,-273.27 152.13,-367.26 93.99,-93.98 223.84,-152.12 367.25,-152.12 143.42,0 273.27,58.14 367.26,152.12 9.23,9.23 18.11,18.81 26.63,28.71l289.81 0 -71.7 102.4 -481.34 0 -281 401.31 -931.54 0zm607.3 -74.37l147.71 0 300.62 -429.34 370.9 0c-1,-1.03 -2.02,-2.05 -3.04,-3.06 -87.42,-87.43 -208.2,-141.5 -341.61,-141.5 -133.41,0 -254.19,54.07 -341.61,141.5 -87.42,87.42 -141.5,208.2 -141.5,341.61 0,31.03 2.93,61.38 8.53,90.79z"/>
   <polygon class="fil0" points="-9087.35,737.15 -9123.83,789.25 -7295.39,789.25 -7258.91,737.15 "/>
   <path class="fil0" d="M-7935.92 603.43l355.08 0 41.63 -59.44 -359.71 0 52.03 -74.31 359.71 0 41.62 -59.44 -359.71 0 52.03 -74.31 494.33 0 -239.38 341.87c-165.57,0 -328.52,0 -494.33,0l56.7 -74.37z"/>
   <path class="fil1" d="M-7261.67 969.2c0,9.58 -1.85,17.91 -5.55,24.97 -3.7,7.07 -8.62,12.95 -14.84,17.66 -6.23,4.71 -13.41,8.24 -21.66,10.6 -8.24,2.35 -16.86,3.53 -25.94,3.53 -9.08,0 -17.66,-1.18 -25.82,-3.53 -8.11,-2.36 -15.34,-5.89 -21.65,-10.6 -6.31,-4.71 -11.27,-10.59 -14.97,-17.66 -3.7,-7.06 -5.55,-15.39 -5.55,-24.97l0 -65.35c0,-9.58 2.02,-17.82 6.06,-24.72 4.03,-6.89 9.25,-12.61 15.72,-17.15 6.48,-4.54 13.71,-7.91 21.78,-10.09 8.08,-2.19 16.19,-3.28 24.43,-3.28 8.24,0 16.4,1.17 24.56,3.53 8.15,2.35 15.43,5.84 21.9,10.47 6.48,4.62 11.65,10.47 15.6,17.53 3.96,7.07 5.93,15.39 5.93,24.98l0 64.08zm-40.11 -56.51c0,-5.05 -0.84,-9.3 -2.52,-12.74 -1.69,-3.45 -3.83,-6.23 -6.44,-8.33 -2.6,-2.1 -5.59,-3.66 -8.95,-4.67 -3.37,-1.01 -6.65,-1.51 -9.84,-1.51 -3.37,0 -6.69,0.5 -9.97,1.51 -3.28,1.01 -6.26,2.57 -8.95,4.67 -2.7,2.1 -4.88,4.88 -6.56,8.33 -1.69,3.44 -2.53,7.69 -2.53,12.74l0 49.19c0,5.05 0.84,9.29 2.53,12.74 1.68,3.45 3.86,6.22 6.56,8.33 2.69,2.1 5.67,3.66 8.95,4.66 3.28,1.01 6.6,1.52 9.97,1.52 3.19,0 6.47,-0.51 9.84,-1.52 3.36,-1 6.35,-2.56 8.95,-4.66 2.61,-2.11 4.75,-4.88 6.44,-8.33 1.68,-3.45 2.52,-7.69 2.52,-12.74l0 -49.19z"/>
   <polygon class="fil1" points="-9123.83,1025.96 -9123.83,848.61 -9000.02,848.61 -9000.02,884.9 -9082.9,884.9 -9082.9,1025.96 "/>
   <path class="fil1" d="M-8842.02 969.2c0,9.58 -1.85,17.91 -5.55,24.97 -3.7,7.07 -8.62,12.95 -14.84,17.66 -6.23,4.71 -13.41,8.24 -21.66,10.6 -8.24,2.35 -16.86,3.53 -25.94,3.53 -9.08,0 -17.66,-1.18 -25.82,-3.53 -8.11,-2.36 -15.34,-5.89 -21.65,-10.6 -6.31,-4.71 -11.27,-10.59 -14.97,-17.66 -3.7,-7.06 -5.55,-15.39 -5.55,-24.97l0 -65.35c0,-9.58 2.02,-17.82 6.06,-24.72 4.03,-6.89 9.25,-12.61 15.72,-17.15 6.48,-4.54 13.71,-7.91 21.78,-10.09 8.08,-2.19 16.19,-3.28 24.43,-3.28 8.24,0 16.4,1.17 24.56,3.53 8.15,2.35 15.43,5.84 21.9,10.47 6.48,4.62 11.65,10.47 15.6,17.53 3.96,7.07 5.93,15.39 5.93,24.98l0 64.08zm-40.11 -56.51c0,-5.05 -0.84,-9.3 -2.52,-12.74 -1.69,-3.45 -3.83,-6.23 -6.44,-8.33 -2.61,-2.1 -5.59,-3.66 -8.95,-4.67 -3.37,-1.01 -6.65,-1.51 -9.84,-1.51 -3.37,0 -6.69,0.5 -9.97,1.51 -3.28,1.01 -6.26,2.57 -8.95,4.67 -2.7,2.1 -4.88,4.88 -6.56,8.33 -1.69,3.44 -2.53,7.69 -2.53,12.74l0 49.19c0,5.05 0.84,9.29 2.53,12.74 1.68,3.45 3.86,6.22 6.56,8.33 2.69,2.1 5.67,3.66 8.95,4.66 3.28,1.01 6.6,1.52 9.97,1.52 3.19,0 6.47,-0.51 9.84,-1.52 3.36,-1 6.34,-2.56 8.95,-4.66 2.61,-2.11 4.75,-4.88 6.44,-8.33 1.68,-3.45 2.52,-7.69 2.52,-12.74l0 -49.19z"/>
   <polygon class="fil1" points="-8685.12,943.33 -8701.85,975.25 -8717.29,1002.28 -8746.38,1002.28 -8762.08,974.22 -8778.04,943.59 -8779.07,943.59 -8779.07,1025.96 -8820,1025.96 -8820,848.61 -8782.42,848.61 -8753.07,906.27 -8732.22,948.48 -8730.68,948.48 -8709.06,904.72 -8681,848.61 -8643.42,848.61 -8643.42,1025.96 -8684.35,1025.96 -8684.35,943.33 "/>
   <polygon class="fil1" points="-8622.78,848.61 -8498.97,848.61 -8498.97,884.9 -8581.85,884.9 -8581.85,918.36 -8498.97,918.36 -8498.97,954.66 -8581.85,954.66 -8581.85,989.67 -8498.97,989.67 -8498.97,1025.96 -8622.78,1025.96 "/>
   <path class="fil1" d="M-8404.97 884.9l0 39.39c0,13.89 -0.73,26.85 -2.19,38.86 -1.45,12.01 -4.5,22.57 -9.13,31.67 -4.63,9.09 -11.37,16.39 -20.21,21.88 -8.84,5.49 -20.72,8.57 -35.65,9.26l-6.18 -32.95c8.06,-2.06 14.33,-4.93 18.79,-8.62 4.46,-3.69 7.77,-8.24 9.91,-13.64 2.14,-5.41 3.43,-11.76 3.86,-19.05 0.43,-7.29 0.65,-15.66 0.65,-25.1l0 -77.99 120.72 0 0 177.35 -41.44 0 0 -141.06 -39.13 0z"/>
   <path class="fil1" d="M-8262.83 989.67l32.17 0c7.38,0 13.13,-1.93 17.25,-5.84 4.12,-3.86 6.18,-8.58 6.18,-14.11 0,-5.54 -2.02,-10.26 -6.05,-14.12 -4.04,-3.9 -9.83,-5.83 -17.38,-5.83l-32.17 0 0 39.9zm-40.93 36.29l0 -177.35 40.93 0 0 64.86 36.8 0c18.37,0 32.69,4.94 42.99,14.85 10.3,9.86 15.45,23.59 15.45,41.14 0,6.52 -1.03,13.17 -3.09,19.86 -2.06,6.7 -5.32,12.79 -9.78,18.19 -4.47,5.41 -10.3,9.87 -17.51,13.3 -7.21,3.43 -16.04,5.15 -26.51,5.15l-79.28 0z"/>
   <path class="fil1" d="M-8140.07 864.27c7.08,-5.05 15.41,-8.93 25.01,-11.62 9.6,-2.7 20.05,-4.04 31.33,-4.04 8.76,0 16.88,1.09 24.38,3.28 7.5,2.19 14.02,5.56 19.58,10.11 5.56,4.54 9.9,10.31 13.01,17.3 3.12,6.99 4.68,15.29 4.68,24.89l0 65.69c0,9.59 -1.9,17.89 -5.69,24.88 -3.79,6.99 -8.84,12.8 -15.16,17.43 -6.31,4.63 -13.51,8.09 -21.6,10.36 -8.08,2.27 -16.42,3.41 -25.01,3.41 -10.27,0 -20.51,-1.43 -30.7,-4.29 -10.19,-2.87 -18.73,-7.33 -25.64,-13.39l19.46 -31.08c5.72,4.88 11.7,8.13 17.93,9.73 6.23,1.6 12.13,2.4 17.69,2.4 4.04,0 7.79,-0.51 11.24,-1.52 3.45,-1.01 6.44,-2.57 8.97,-4.67 2.52,-2.11 4.55,-4.89 6.06,-8.34 1.51,-3.45 2.28,-7.7 2.28,-12.76l0 -7.9 -53.82 0 0 -36.8 53.82 0 0 -4.56c0,-5.05 -0.77,-9.31 -2.28,-12.76 -1.51,-3.45 -3.54,-6.23 -6.06,-8.34 -2.53,-2.1 -5.52,-3.66 -8.97,-4.67 -3.45,-1.01 -7.03,-1.52 -10.74,-1.52 -5.05,0 -10.15,0.68 -15.28,2.02 -5.14,1.35 -10.66,4.13 -16.55,8.34l-17.94 -31.58z"/>
   <polygon class="fil1" points="-7902.63,1025.96 -7902.63,954.14 -7959.26,954.14 -7959.26,1025.96 -8000.19,1025.96 -8000.19,848.61 -7959.26,848.61 -7959.26,917.34 -7902.63,917.34 -7902.63,848.61 -7861.19,848.61 -7861.19,1025.96 "/>
   <polygon class="fil1" points="-7840.55,848.61 -7716.74,848.61 -7716.74,884.9 -7799.62,884.9 -7799.62,917.34 -7728.84,917.34 -7728.84,954.14 -7799.62,954.14 -7799.62,989.67 -7716.74,989.67 -7716.74,1025.96 -7840.55,1025.96 "/>
   <path class="fil1" d="M-7655.17 925.06l30.11 0c7.73,0 13.22,-1.98 16.48,-5.88 3.26,-3.91 4.89,-8.63 4.89,-14.2 0,-5.58 -1.59,-10.3 -4.76,-14.2 -3.18,-3.9 -8.71,-5.88 -16.61,-5.88l-30.11 0 0 40.16zm36.68 -76.45c9.99,0 18.49,1.58 25.56,4.76 7.04,3.17 12.79,7.42 17.25,12.74 4.51,5.32 7.77,11.32 9.83,18.02 2.06,6.69 3.09,13.64 3.09,20.85 0,7.21 -1.25,14.16 -3.74,20.85 -2.49,6.69 -6.22,12.7 -11.11,18.02 -4.89,5.32 -10.89,9.56 -17.93,12.74 -7.08,3.17 -15.15,4.76 -24.28,4.76l-35.35 0 0 64.61 -40.93 0 0 -177.35 77.61 0z"/>
   <polygon class="fil1" points="-7542.13,1025.96 -7542.13,848.61 -7418.31,848.61 -7418.31,884.9 -7501.2,884.9 -7501.2,1025.96 "/>
  </g>
  <g id="_1724074817984_2">
   <path class="fil0" d="M-9045.79 677.8l93.69 -133.81 163.14 0 -41.62 59.44 355.21 0c-5.2,-29.48 -7.92,-59.82 -7.92,-90.79 0,-143.42 58.14,-273.27 152.13,-367.26 93.99,-93.98 223.84,-152.12 367.25,-152.12 143.42,0 273.27,58.14 367.26,152.12 9.23,9.23 18.11,18.81 26.63,28.71l289.81 0 -71.7 102.4 -481.34 0 -281 401.31 -931.54 0zm607.3 -74.37l147.71 0 300.62 -429.34 370.9 0c-1,-1.03 -2.02,-2.05 -3.04,-3.06 -87.42,-87.43 -208.2,-141.5 -341.61,-141.5 -133.41,0 -254.19,54.07 -341.61,141.5 -87.42,87.42 -141.5,208.2 -141.5,341.61 0,31.03 2.93,61.38 8.53,90.79z"/>
   <polygon class="fil0" points="-9087.35,737.15 -9123.83,789.25 -7295.39,789.25 -7258.91,737.15 "/>
   <path class="fil0" d="M-7935.92 603.43l355.08 0 41.63 -59.44 -359.71 0 52.03 -74.31 359.71 0 41.62 -59.44 -359.71 0 52.03 -74.31 494.33 0 -239.38 341.87c-165.57,0 -328.52,0 -494.33,0l56.7 -74.37z"/>
   <path class="fil1" d="M-7261.67 969.2c0,9.58 -1.85,17.91 -5.55,24.97 -3.7,7.07 -8.62,12.95 -14.84,17.66 -6.23,4.71 -13.41,8.24 -21.66,10.6 -8.24,2.35 -16.86,3.53 -25.94,3.53 -9.08,0 -17.66,-1.18 -25.82,-3.53 -8.11,-2.36 -15.34,-5.89 -21.65,-10.6 -6.31,-4.71 -11.27,-10.59 -14.97,-17.66 -3.7,-7.06 -5.55,-15.39 -5.55,-24.97l0 -65.35c0,-9.58 2.02,-17.82 6.06,-24.72 4.03,-6.89 9.25,-12.61 15.72,-17.15 6.48,-4.54 13.71,-7.91 21.78,-10.09 8.08,-2.19 16.19,-3.28 24.43,-3.28 8.24,0 16.4,1.17 24.56,3.53 8.15,2.35 15.43,5.84 21.9,10.47 6.48,4.62 11.65,10.47 15.6,17.53 3.96,7.07 5.93,15.39 5.93,24.98l0 64.08zm-40.11 -56.51c0,-5.05 -0.84,-9.3 -2.52,-12.74 -1.69,-3.45 -3.83,-6.23 -6.44,-8.33 -2.6,-2.1 -5.59,-3.66 -8.95,-4.67 -3.37,-1.01 -6.65,-1.51 -9.84,-1.51 -3.37,0 -6.69,0.5 -9.97,1.51 -3.28,1.01 -6.26,2.57 -8.95,4.67 -2.7,2.1 -4.88,4.88 -6.56,8.33 -1.69,3.44 -2.53,7.69 -2.53,12.74l0 49.19c0,5.05 0.84,9.29 2.53,12.74 1.68,3.45 3.86,6.22 6.56,8.33 2.69,2.1 5.67,3.66 8.95,4.66 3.28,1.01 6.6,1.52 9.97,1.52 3.19,0 6.47,-0.51 9.84,-1.52 3.36,-1 6.35,-2.56 8.95,-4.66 2.61,-2.11 4.75,-4.88 6.44,-8.33 1.68,-3.45 2.52,-7.69 2.52,-12.74l0 -49.19z"/>
   <polygon class="fil1" points="-9123.83,1025.96 -9123.83,848.61 -9000.02,848.61 -9000.02,884.9 -9082.9,884.9 -9082.9,1025.96 "/>
   <path class="fil1" d="M-8842.02 969.2c0,9.58 -1.85,17.91 -5.55,24.97 -3.7,7.07 -8.62,12.95 -14.84,17.66 -6.23,4.71 -13.41,8.24 -21.66,10.6 -8.24,2.35 -16.86,3.53 -25.94,3.53 -9.08,0 -17.66,-1.18 -25.82,-3.53 -8.11,-2.36 -15.34,-5.89 -21.65,-10.6 -6.31,-4.71 -11.27,-10.59 -14.97,-17.66 -3.7,-7.06 -5.55,-15.39 -5.55,-24.97l0 -65.35c0,-9.58 2.02,-17.82 6.06,-24.72 4.03,-6.89 9.25,-12.61 15.72,-17.15 6.48,-4.54 13.71,-7.91 21.78,-10.09 8.08,-2.19 16.19,-3.28 24.43,-3.28 8.24,0 16.4,1.17 24.56,3.53 8.15,2.35 15.43,5.84 21.9,10.47 6.48,4.62 11.65,10.47 15.6,17.53 3.96,7.07 5.93,15.39 5.93,24.98l0 64.08zm-40.11 -56.51c0,-5.05 -0.84,-9.3 -2.52,-12.74 -1.69,-3.45 -3.83,-6.23 -6.44,-8.33 -2.61,-2.1 -5.59,-3.66 -8.95,-4.67 -3.37,-1.01 -6.65,-1.51 -9.84,-1.51 -3.37,0 -6.69,0.5 -9.97,1.51 -3.28,1.01 -6.26,2.57 -8.95,4.67 -2.7,2.1 -4.88,4.88 -6.56,8.33 -1.69,3.44 -2.53,7.69 -2.53,12.74l0 49.19c0,5.05 0.84,9.29 2.53,12.74 1.68,3.45 3.86,6.22 6.56,8.33 2.69,2.1 5.67,3.66 8.95,4.66 3.28,1.01 6.6,1.52 9.97,1.52 3.19,0 6.47,-0.51 9.84,-1.52 3.36,-1 6.34,-2.56 8.95,-4.66 2.61,-2.11 4.75,-4.88 6.44,-8.33 1.68,-3.45 2.52,-7.69 2.52,-12.74l0 -49.19z"/>
   <polygon class="fil1" points="-8685.12,943.33 -8701.85,975.25 -8717.29,1002.28 -8746.38,1002.28 -8762.08,974.22 -8778.04,943.59 -8779.07,943.59 -8779.07,1025.96 -8820,1025.96 -8820,848.61 -8782.42,848.61 -8753.07,906.27 -8732.22,948.48 -8730.68,948.48 -8709.06,904.72 -8681,848.61 -8643.42,848.61 -8643.42,1025.96 -8684.35,1025.96 -8684.35,943.33 "/>
   <polygon class="fil1" points="-8622.78,848.61 -8498.97,848.61 -8498.97,884.9 -8581.85,884.9 -8581.85,918.36 -8498.97,918.36 -8498.97,954.66 -8581.85,954.66 -8581.85,989.67 -8498.97,989.67 -8498.97,1025.96 -8622.78,1025.96 "/>
   <path class="fil1" d="M-8404.97 884.9l0 39.39c0,13.89 -0.73,26.85 -2.19,38.86 -1.45,12.01 -4.5,22.57 -9.13,31.67 -4.63,9.09 -11.37,16.39 -20.21,21.88 -8.84,5.49 -20.72,8.57 -35.65,9.26l-6.18 -32.95c8.06,-2.06 14.33,-4.93 18.79,-8.62 4.46,-3.69 7.77,-8.24 9.91,-13.64 2.14,-5.41 3.43,-11.76 3.86,-19.05 0.43,-7.29 0.65,-15.66 0.65,-25.1l0 -77.99 120.72 0 0 177.35 -41.44 0 0 -141.06 -39.13 0z"/>
   <path class="fil1" d="M-8262.83 989.67l32.17 0c7.38,0 13.13,-1.93 17.25,-5.84 4.12,-3.86 6.18,-8.58 6.18,-14.11 0,-5.54 -2.02,-10.26 -6.05,-14.12 -4.04,-3.9 -9.83,-5.83 -17.38,-5.83l-32.17 0 0 39.9zm-40.93 36.29l0 -177.35 40.93 0 0 64.86 36.8 0c18.37,0 32.69,4.94 42.99,14.85 10.3,9.86 15.45,23.59 15.45,41.14 0,6.52 -1.03,13.17 -3.09,19.86 -2.06,6.7 -5.32,12.79 -9.78,18.19 -4.47,5.41 -10.3,9.87 -17.51,13.3 -7.21,3.43 -16.04,5.15 -26.51,5.15l-79.28 0z"/>
   <path class="fil1" d="M-8140.07 864.27c7.08,-5.05 15.41,-8.93 25.01,-11.62 9.6,-2.7 20.05,-4.04 31.33,-4.04 8.76,0 16.88,1.09 24.38,3.28 7.5,2.19 14.02,5.56 19.58,10.11 5.56,4.54 9.9,10.31 13.01,17.3 3.12,6.99 4.68,15.29 4.68,24.89l0 65.69c0,9.59 -1.9,17.89 -5.69,24.88 -3.79,6.99 -8.84,12.8 -15.16,17.43 -6.31,4.63 -13.51,8.09 -21.6,10.36 -8.08,2.27 -16.42,3.41 -25.01,3.41 -10.27,0 -20.51,-1.43 -30.7,-4.29 -10.19,-2.87 -18.73,-7.33 -25.64,-13.39l19.46 -31.08c5.72,4.88 11.7,8.13 17.93,9.73 6.23,1.6 12.13,2.4 17.69,2.4 4.04,0 7.79,-0.51 11.24,-1.52 3.45,-1.01 6.44,-2.57 8.97,-4.67 2.52,-2.11 4.55,-4.89 6.06,-8.34 1.51,-3.45 2.28,-7.7 2.28,-12.76l0 -7.9 -53.82 0 0 -36.8 53.82 0 0 -4.56c0,-5.05 -0.77,-9.31 -2.28,-12.76 -1.51,-3.45 -3.54,-6.23 -6.06,-8.34 -2.53,-2.1 -5.52,-3.66 -8.97,-4.67 -3.45,-1.01 -7.03,-1.52 -10.74,-1.52 -5.05,0 -10.15,0.68 -15.28,2.02 -5.14,1.35 -10.66,4.13 -16.55,8.34l-17.94 -31.58z"/>
   <polygon class="fil1" points="-7902.63,1025.96 -7902.63,954.14 -7959.26,954.14 -7959.26,1025.96 -8000.19,1025.96 -8000.19,848.61 -7959.26,848.61 -7959.26,917.34 -7902.63,917.34 -7902.63,848.61 -7861.19,848.61 -7861.19,1025.96 "/>
   <polygon class="fil1" points="-7840.55,848.61 -7716.74,848.61 -7716.74,884.9 -7799.62,884.9 -7799.62,917.34 -7728.84,917.34 -7728.84,954.14 -7799.62,954.14 -7799.62,989.67 -7716.74,989.67 -7716.74,1025.96 -7840.55,1025.96 "/>
   <path class="fil1" d="M-7655.17 925.06l30.11 0c7.73,0 13.22,-1.98 16.48,-5.88 3.26,-3.91 4.89,-8.63 4.89,-14.2 0,-5.58 -1.59,-10.3 -4.76,-14.2 -3.18,-3.9 -8.71,-5.88 -16.61,-5.88l-30.11 0 0 40.16zm36.68 -76.45c9.99,0 18.49,1.58 25.56,4.76 7.04,3.17 12.79,7.42 17.25,12.74 4.51,5.32 7.77,11.32 9.83,18.02 2.06,6.69 3.09,13.64 3.09,20.85 0,7.21 -1.25,14.16 -3.74,20.85 -2.49,6.69 -6.22,12.7 -11.11,18.02 -4.89,5.32 -10.89,9.56 -17.93,12.74 -7.08,3.17 -15.15,4.76 -24.28,4.76l-35.35 0 0 64.61 -40.93 0 0 -177.35 77.61 0z"/>
   <polygon class="fil1" points="-7542.13,1025.96 -7542.13,848.61 -7418.31,848.61 -7418.31,884.9 -7501.2,884.9 -7501.2,1025.96 "/>
  </g>
  <g id="_1724074817984_3">
   <path class="fil0" d="M71.24 669.12l93.69 -133.81 163.14 0 -41.62 59.44 355.21 0c-5.2,-29.48 -7.92,-59.82 -7.92,-90.79 0,-143.42 58.14,-273.27 152.13,-367.26 93.99,-93.98 223.84,-152.12 367.25,-152.12 143.42,0 273.27,58.14 367.26,152.12 9.23,9.23 18.11,18.81 26.63,28.71l289.81 0 -71.7 102.4 -481.34 0 -281 401.31 -931.54 0zm607.3 -74.37l147.71 0 300.62 -429.34 370.9 0c-1,-1.03 -2.02,-2.05 -3.04,-3.06 -87.42,-87.43 -208.2,-141.5 -341.61,-141.5 -133.41,0 -254.19,54.07 -341.61,141.5 -87.42,87.42 -141.5,208.2 -141.5,341.61 0,31.03 2.93,61.38 8.53,90.79z"/>
   <polygon class="fil0" points="29.68,728.47 -6.8,780.57 1821.64,780.57 1858.12,728.47 "/>
   <path class="fil0" d="M1181.11 594.75l355.08 0 41.63 -59.44 -359.71 0 52.03 -74.31 359.71 0 41.62 -59.44 -359.71 0 52.03 -74.31 494.33 0 -239.38 341.87c-165.57,0 -328.52,0 -494.33,0l56.7 -74.37z"/>
   <path class="fil1" d="M1855.36 960.52c0,9.58 -1.85,17.91 -5.55,24.97 -3.7,7.07 -8.62,12.95 -14.84,17.66 -6.23,4.71 -13.41,8.24 -21.66,10.6 -8.24,2.35 -16.86,3.53 -25.94,3.53 -9.08,0 -17.66,-1.18 -25.82,-3.53 -8.11,-2.36 -15.34,-5.89 -21.65,-10.6 -6.31,-4.71 -11.27,-10.59 -14.97,-17.66 -3.7,-7.06 -5.55,-15.39 -5.55,-24.97l0 -65.35c0,-9.58 2.02,-17.82 6.06,-24.72 4.03,-6.89 9.25,-12.61 15.72,-17.15 6.48,-4.54 13.71,-7.91 21.78,-10.09 8.08,-2.19 16.19,-3.28 24.43,-3.28 8.24,0 16.4,1.17 24.56,3.53 8.15,2.35 15.43,5.84 21.9,10.47 6.48,4.62 11.65,10.47 15.6,17.53 3.96,7.07 5.93,15.39 5.93,24.98l0 64.08zm-40.11 -56.51c0,-5.05 -0.84,-9.3 -2.52,-12.74 -1.69,-3.45 -3.83,-6.23 -6.44,-8.33 -2.6,-2.1 -5.59,-3.66 -8.95,-4.67 -3.37,-1.01 -6.65,-1.51 -9.84,-1.51 -3.37,0 -6.69,0.5 -9.97,1.51 -3.28,1.01 -6.26,2.57 -8.95,4.67 -2.7,2.1 -4.88,4.88 -6.56,8.33 -1.69,3.44 -2.53,7.69 -2.53,12.74l0 49.19c0,5.05 0.84,9.29 2.53,12.74 1.68,3.45 3.86,6.22 6.56,8.33 2.69,2.1 5.67,3.66 8.95,4.66 3.28,1.01 6.6,1.52 9.97,1.52 3.19,0 6.47,-0.51 9.84,-1.52 3.36,-1 6.35,-2.56 8.95,-4.66 2.61,-2.11 4.75,-4.88 6.44,-8.33 1.68,-3.45 2.52,-7.69 2.52,-12.74l0 -49.19z"/>
   <polygon class="fil1" points="-6.8,1017.28 -6.8,839.93 117.01,839.93 117.01,876.22 34.13,876.22 34.13,1017.28 "/>
   <path class="fil1" d="M275.01 960.52c0,9.58 -1.85,17.91 -5.55,24.97 -3.7,7.07 -8.62,12.95 -14.84,17.66 -6.23,4.71 -13.41,8.24 -21.66,10.6 -8.24,2.35 -16.86,3.53 -25.94,3.53 -9.08,0 -17.66,-1.18 -25.82,-3.53 -8.11,-2.36 -15.34,-5.89 -21.65,-10.6 -6.31,-4.71 -11.27,-10.59 -14.97,-17.66 -3.7,-7.06 -5.55,-15.39 -5.55,-24.97l0 -65.35c0,-9.58 2.02,-17.82 6.06,-24.72 4.03,-6.89 9.25,-12.61 15.72,-17.15 6.48,-4.54 13.71,-7.91 21.78,-10.09 8.08,-2.19 16.19,-3.28 24.43,-3.28 8.24,0 16.4,1.17 24.56,3.53 8.15,2.35 15.43,5.84 21.9,10.47 6.48,4.62 11.65,10.47 15.6,17.53 3.96,7.07 5.93,15.39 5.93,24.98l0 64.08zm-40.11 -56.51c0,-5.05 -0.84,-9.3 -2.52,-12.74 -1.69,-3.45 -3.83,-6.23 -6.44,-8.33 -2.61,-2.1 -5.59,-3.66 -8.95,-4.67 -3.37,-1.01 -6.65,-1.51 -9.84,-1.51 -3.37,0 -6.69,0.5 -9.97,1.51 -3.28,1.01 -6.26,2.57 -8.95,4.67 -2.7,2.1 -4.88,4.88 -6.56,8.33 -1.69,3.44 -2.53,7.69 -2.53,12.74l0 49.19c0,5.05 0.84,9.29 2.53,12.74 1.68,3.45 3.86,6.22 6.56,8.33 2.69,2.1 5.67,3.66 8.95,4.66 3.28,1.01 6.6,1.52 9.97,1.52 3.19,0 6.47,-0.51 9.84,-1.52 3.36,-1 6.34,-2.56 8.95,-4.66 2.61,-2.11 4.75,-4.88 6.44,-8.33 1.68,-3.45 2.52,-7.69 2.52,-12.74l0 -49.19z"/>
   <polygon class="fil1" points="431.91,934.65 415.18,966.57 399.74,993.6 370.65,993.6 354.95,965.54 338.99,934.91 337.96,934.91 337.96,1017.28 297.03,1017.28 297.03,839.93 334.61,839.93 363.96,897.59 384.81,939.8 386.35,939.8 407.97,896.04 436.03,839.93 473.61,839.93 473.61,1017.28 432.68,1017.28 432.68,934.65 "/>
   <polygon class="fil1" points="494.25,839.93 618.06,839.93 618.06,876.22 535.18,876.22 535.18,909.68 618.06,909.68 618.06,945.98 535.18,945.98 535.18,980.99 618.06,980.99 618.06,1017.28 494.25,1017.28 "/>
   <path class="fil1" d="M712.06 876.22l0 39.39c0,13.89 -0.73,26.85 -2.19,38.86 -1.45,12.01 -4.5,22.57 -9.13,31.67 -4.63,9.09 -11.37,16.39 -20.21,21.88 -8.84,5.49 -20.72,8.57 -35.65,9.26l-6.18 -32.95c8.06,-2.06 14.33,-4.93 18.79,-8.62 4.46,-3.69 7.77,-8.24 9.91,-13.64 2.14,-5.41 3.43,-11.76 3.86,-19.05 0.43,-7.29 0.65,-15.66 0.65,-25.1l0 -77.99 120.72 0 0 177.35 -41.44 0 0 -141.06 -39.13 0z"/>
   <path class="fil1" d="M854.2 980.99l32.17 0c7.38,0 13.13,-1.93 17.25,-5.84 4.12,-3.86 6.18,-8.58 6.18,-14.11 0,-5.54 -2.02,-10.26 -6.05,-14.12 -4.04,-3.9 -9.83,-5.83 -17.38,-5.83l-32.17 0 0 39.9zm-40.93 36.29l0 -177.35 40.93 0 0 64.86 36.8 0c18.37,0 32.69,4.94 42.99,14.85 10.3,9.86 15.45,23.59 15.45,41.14 0,6.52 -1.03,13.17 -3.09,19.86 -2.06,6.7 -5.32,12.79 -9.78,18.19 -4.47,5.41 -10.3,9.87 -17.51,13.3 -7.21,3.43 -16.04,5.15 -26.51,5.15l-79.28 0z"/>
   <path class="fil1" d="M976.96 855.59c7.08,-5.05 15.41,-8.93 25.01,-11.62 9.6,-2.7 20.05,-4.04 31.33,-4.04 8.76,0 16.88,1.09 24.38,3.28 7.5,2.19 14.02,5.56 19.58,10.11 5.56,4.54 9.9,10.31 13.01,17.3 3.12,6.99 4.68,15.29 4.68,24.89l0 65.69c0,9.59 -1.9,17.89 -5.69,24.88 -3.79,6.99 -8.84,12.8 -15.16,17.43 -6.31,4.63 -13.51,8.09 -21.6,10.36 -8.08,2.27 -16.42,3.41 -25.01,3.41 -10.27,0 -20.51,-1.43 -30.7,-4.29 -10.19,-2.87 -18.73,-7.33 -25.64,-13.39l19.46 -31.08c5.72,4.88 11.7,8.13 17.93,9.73 6.23,1.6 12.13,2.4 17.69,2.4 4.04,0 7.79,-0.51 11.24,-1.52 3.45,-1.01 6.44,-2.57 8.97,-4.67 2.52,-2.11 4.55,-4.89 6.06,-8.34 1.51,-3.45 2.28,-7.7 2.28,-12.76l0 -7.9 -53.82 0 0 -36.8 53.82 0 0 -4.56c0,-5.05 -0.77,-9.31 -2.28,-12.76 -1.51,-3.45 -3.54,-6.23 -6.06,-8.34 -2.53,-2.1 -5.52,-3.66 -8.97,-4.67 -3.45,-1.01 -7.03,-1.52 -10.74,-1.52 -5.05,0 -10.15,0.68 -15.28,2.02 -5.14,1.35 -10.66,4.13 -16.55,8.34l-17.94 -31.58z"/>
   <polygon class="fil1" points="1214.4,1017.28 1214.4,945.46 1157.77,945.46 1157.77,1017.28 1116.84,1017.28 1116.84,839.93 1157.77,839.93 1157.77,908.66 1214.4,908.66 1214.4,839.93 1255.84,839.93 1255.84,1017.28 "/>
   <polygon class="fil1" points="1276.48,839.93 1400.29,839.93 1400.29,876.22 1317.41,876.22 1317.41,908.66 1388.19,908.66 1388.19,945.46 1317.41,945.46 1317.41,980.99 1400.29,980.99 1400.29,1017.28 1276.48,1017.28 "/>
   <path class="fil1" d="M1461.86 916.38l30.11 0c7.73,0 13.22,-1.98 16.48,-5.88 3.26,-3.91 4.89,-8.63 4.89,-14.2 0,-5.58 -1.59,-10.3 -4.76,-14.2 -3.18,-3.9 -8.71,-5.88 -16.61,-5.88l-30.11 0 0 40.16zm36.68 -76.45c9.99,0 18.49,1.58 25.56,4.76 7.04,3.17 12.79,7.42 17.25,12.74 4.51,5.32 7.77,11.32 9.83,18.02 2.06,6.69 3.09,13.64 3.09,20.85 0,7.21 -1.25,14.16 -3.74,20.85 -2.49,6.69 -6.22,12.7 -11.11,18.02 -4.89,5.32 -10.89,9.56 -17.93,12.74 -7.08,3.17 -15.15,4.76 -24.28,4.76l-35.35 0 0 64.61 -40.93 0 0 -177.35 77.61 0z"/>
   <polygon class="fil1" points="1574.9,1017.28 1574.9,839.93 1698.72,839.93 1698.72,876.22 1615.83,876.22 1615.83,1017.28 "/>
  </g>
 </g>
</svg>
